PathFileType  4	(X/Y/Z) C:\Users\antoi\Documents\MyRepositories\mobilecap\ResultsAnalysis
DataRate	CameraRate	NumFrames	NumMarkers	Units	OrigDataRate	OrigDataStartFrame	OrigNumFrames
100.0	100.0	4	51	mm	100.0	1149	1312
Frame#	Time	r_knee			r_shank_antsup			r_ankle			r_calc			r_5meta			r_toe			L_knee			L_shank_antsup			L_ankle			L_calc			L_5meta			L_toe			r_sh2			r_sh3			r_sh4			L_sh2			L_sh3			r_thigh1			r_thigh2			r_thigh3			r_thigh4			r_thigh5			L_thigh1			L_thigh2			L_thigh3			L_thigh4			r.ASIS			r.PSIS			L.ASIS			L.PSIS			C7			R_Shoulder			L_Shoulder			R_Sternum			L_Sternum			R_humerus			R_elbow_med			R_elbow_lat			R_forearm			R_wrist_radius			R_wrist_ulna			L_humerus			L_elbow_med			L_elbow_lat			L_forearm			L_wrist_radius			L_wrist_ulna			R_HJC			L_HJC			R_HJC_reg			L_HJC_reg			
		X1	Y1	Z1	X2	Y2	Z2	X3	Y3	Z3	X4	Y4	Z4	X5	Y5	Z5	X6	Y6	Z6	X7	Y7	Z7	X8	Y8	Z8	X9	Y9	Z9	X10	Y10	Z10	X11	Y11	Z11	X12	Y12	Z12	X13	Y13	Z13	X14	Y14	Z14	X15	Y15	Z15	X16	Y16	Z16	X17	Y17	Z17	X18	Y18	Z18	X19	Y19	Z19	X20	Y20	Z20	X21	Y21	Z21	X22	Y22	Z22	X23	Y23	Z23	X24	Y24	Z24	X25	Y25	Z25	X26	Y26	Z26	X27	Y27	Z27	X28	Y28	Z28	X29	Y29	Z29	X30	Y30	Z30	X31	Y31	Z31	X32	Y32	Z32	X33	Y33	Z33	X34	Y34	Z34	X35	Y35	Z35	X36	Y36	Z36	X37	Y37	Z37	X38	Y38	Z38	X39	Y39	Z39	X40	Y40	Z40	X41	Y41	Z41	X42	Y42	Z42	X43	Y43	Z43	X44	Y44	Z44	X45	Y45	Z45	X46	Y46	Z46	X47	Y47	Z47	X48	Y48	Z48	X49	Y49	Z49	X50	Y50	Z50	X51	Y51	Z51	

1149	11.48000000	-115.95663	494.45309	-395.96447	-106.30207	419.89803	-368.56353	-284.50947	105.45535	-398.19313	-342.29793	54.73820	-451.30362	-162.09789	37.13324	-329.55296	-116.51910	60.38102	-382.48412	-131.82550	503.59350	-907.08743	-134.20222	393.13237	-935.81751	-279.39014	101.52449	-891.70224	-341.11968	54.23515	-841.17583	-145.04780	32.21241	-965.02724	-107.71184	59.95396	-907.90773	-152.32925	316.32672	-363.42335	-174.89220	450.36523	-369.59279	-228.49838	346.88883	-369.61008	-211.86347	433.99054	-914.58915	-253.36818	321.28912	-913.21315	-271.97928	767.64777	-397.76089	-187.23942	696.77349	-392.55887	-207.87262	638.08922	-364.96184	-344.88985	677.68475	-402.69937	-250.22040	608.74483	-386.65574	-284.96397	775.30151	-834.45901	-185.96757	687.84500	-878.06185	-363.32357	685.29433	-833.09336	-257.59807	605.22275	-878.71396	-281.44305	836.59642	-475.80115	-428.64863	949.60385	-565.60289	-270.09104	822.58809	-734.15957	-423.88279	943.57247	-667.18835	-124.11368	1342.96595	-565.93638	-104.32366	1269.81717	-393.83922	-52.34162	1290.13610	-723.06859	-13.76475	1216.97398	-524.25409	-6.26888	1217.22347	-579.18937	-249.68354	1051.76895	-295.55593	-322.23234	976.14344	-366.07491	-310.12165	981.89872	-280.76962	-257.04886	829.04577	-264.03449	-220.91478	720.96702	-273.99144	-261.98620	718.59091	-256.51316	-194.58238	1094.12821	-845.39019	-283.29680	1030.45023	-795.87918	-264.06489	1038.23415	-864.87813	-255.62641	869.42048	-915.59205	-239.21846	772.79775	-927.81282	-277.74934	773.93734	-933.98757	-388.93533	800.78659	-484.86300	-377.32081	788.19473	-714.59299	-378.49241	799.45777	-514.97918	-370.49725	789.33888	-685.42325	
1150	11.49000000	-115.06947	493.41664	-395.39212	-105.44093	418.86516	-367.61042	-284.63772	105.31586	-398.29684	-342.31075	54.72069	-451.34557	-162.08028	37.18907	-329.52496	-116.59108	60.43684	-382.45018	-130.36630	502.73233	-907.82415	-132.73739	392.71643	-936.66657	-279.29918	101.54110	-891.59433	-341.09315	54.23157	-841.15171	-145.03670	32.23482	-964.96548	-107.71165	60.02188	-907.92179	-151.88622	315.55466	-362.84029	-173.98196	449.61168	-368.91138	-227.96834	346.46000	-369.24192	-210.45653	433.60664	-915.18582	-252.19706	320.96662	-913.56488	-273.66187	765.02148	-397.70126	-188.19226	695.23016	-391.95365	-208.92003	636.47065	-363.60831	-345.77727	674.27927	-402.47240	-249.95202	606.30700	-385.61035	-285.97181	772.49173	-834.23411	-186.02564	686.49020	-878.23737	-363.37483	681.62705	-833.39551	-256.79077	603.07095	-879.44095	-282.81407	832.31636	-475.80211	-429.77925	945.34354	-565.71403	-271.33877	818.25444	-733.89654	-424.83807	939.52590	-666.80495	-123.49245	1337.18726	-564.67716	-104.29462	1263.57418	-392.91410	-51.52208	1284.44208	-721.95256	-13.66086	1210.71665	-523.02706	-6.27494	1211.10761	-578.26013	-250.53510	1045.81678	-295.28882	-323.23944	970.55004	-365.80192	-311.24131	976.23510	-280.61462	-258.38537	823.28454	-263.98964	-222.21605	715.23510	-274.06176	-263.39323	712.74438	-256.72393	-194.05980	1089.09769	-846.06481	-282.96309	1025.39389	-795.42816	-263.54398	1033.26168	-864.53408	-255.76278	864.57677	-915.80737	-239.83715	767.79373	-927.79057	-278.24709	769.02921	-933.85508	-390.31122	796.57959	-484.77386	-378.58403	784.03089	-714.50043	-379.89179	794.98766	-515.18457	-371.57081	785.18919	-685.46402	
1151	11.50000000	-114.10373	492.42619	-394.90584	-104.51928	417.96561	-366.77772	-284.70635	105.21900	-398.39825	-342.32922	54.68444	-451.45956	-162.05900	37.25290	-329.53338	-116.66642	60.49569	-382.45953	-128.80379	501.77230	-908.29308	-131.15585	392.53268	-937.51409	-279.20438	101.56607	-891.54497	-341.12780	54.23433	-841.17126	-145.02540	32.25872	-964.95859	-107.70608	60.05523	-907.92041	-151.44972	314.77124	-362.37455	-173.15538	448.84497	-368.51913	-227.49680	346.08578	-369.28572	-209.00265	433.24165	-915.85489	-250.98231	320.56960	-914.10257	-275.44381	762.21683	-397.56306	-189.27124	693.45732	-391.42161	-209.83093	634.49760	-362.82663	-346.72026	671.04230	-402.14141	-249.96853	603.69682	-384.70884	-286.74420	769.92507	-834.03121	-185.90740	685.06077	-878.17695	-363.29103	678.07799	-833.85291	-255.74272	601.01847	-880.00619	-284.13052	828.10126	-475.72166	-430.85924	941.09386	-565.92803	-273.26765	813.89044	-733.60521	-425.67200	935.25267	-666.38090	-122.87227	1331.46215	-563.52451	-104.28761	1257.34074	-391.99216	-50.68096	1278.80409	-720.76591	-13.52269	1204.48051	-521.84331	-6.46615	1204.95966	-577.16989	-251.31616	1039.92003	-294.92022	-324.21519	965.09263	-365.58688	-312.30597	970.61721	-280.46617	-259.58845	817.60154	-263.86664	-223.37196	709.46946	-274.06119	-264.68542	707.00543	-256.77846	-193.50567	1084.04434	-846.26389	-282.63044	1020.41826	-795.19691	-263.02905	1028.26285	-864.15321	-255.86865	859.46326	-915.47834	-240.36411	762.82629	-927.70983	-278.71367	764.04950	-933.48944	-391.68833	792.51428	-484.50934	-380.21052	779.72002	-714.23490	-381.62195	790.72985	-515.33288	-372.83710	780.83807	-685.43141	
1152	11.51000000	-113.02120	491.51952	-394.01358	-103.55293	417.19543	-366.11438	-284.70312	105.18073	-398.47493	-342.35278	54.58842	-451.65305	-162.05618	37.29458	-329.56822	-116.73482	60.53791	-382.49473	-127.18426	500.81865	-908.56501	-129.67484	392.02929	-937.85325	-279.07915	101.63461	-891.52117	-341.15291	54.22734	-841.16230	-145.01196	32.27579	-964.94384	-107.68470	60.03641	-907.90994	-150.94688	313.97903	-362.11716	-172.13982	448.25549	-368.18787	-226.88263	345.72028	-369.45508	-207.50308	432.82243	-916.41165	-249.89176	320.25929	-914.65899	-277.27750	759.32548	-397.18723	-190.38696	691.49432	-391.15222	-210.29024	631.86645	-363.26689	-347.59834	667.80597	-402.00680	-250.03741	600.89589	-384.50711	-287.31957	767.49768	-833.81301	-185.75807	683.41763	-877.91732	-363.39460	675.06409	-834.53884	-255.13485	599.03968	-880.57945	-285.40919	823.93119	-475.53205	-431.90456	936.76639	-566.29426	-274.57925	809.69747	-733.71298	-426.38173	930.72260	-666.34730	-122.29797	1325.76404	-562.44791	-104.25862	1251.17198	-391.04196	-49.86854	1273.19225	-719.58506	-13.34962	1198.25858	-520.69962	-6.47727	1198.82676	-575.90767	-252.08601	1034.16052	-294.48383	-325.15909	959.65701	-365.52372	-313.42315	964.97581	-280.42752	-260.71042	811.96805	-263.74116	-224.50254	703.78826	-273.88417	-265.86321	701.37928	-256.70429	-192.93769	1078.88169	-845.61376	-282.29888	1015.52471	-795.03553	-262.57297	1023.22894	-863.68138	-255.93713	854.44529	-915.04127	-240.76164	757.76674	-927.59548	-279.17363	759.08724	-933.20104	-392.88686	788.28914	-484.55058	-381.26326	775.36826	-714.26189	-383.20075	786.60415	-515.48117	-373.80257	776.32025	-685.71956	
